<svg width="35" height="22" viewBox="0 0 35 22" fill="none" xmlns="http://www.w3.org/2000/svg">
<path d="M0.0273789 10.7322C0.0273789 9.07535 1.37052 7.7322 3.02738 7.7322H31.0274C32.6842 7.7322 34.0274 9.07535 34.0274 10.7322C34.0274 12.3891 32.6842 13.7322 31.0274 13.7322H3.02738C1.37053 13.7322 0.0273789 12.3891 0.0273789 10.7322Z" fill="#121212"/>
<path d="M0.881853 12.8133C-0.289719 11.6417 -0.289719 9.74223 0.881853 8.57066L8.57383 0.878679C9.7454 -0.292894 11.6449 -0.292892 12.8165 0.878681C13.988 2.05025 13.988 3.94975 12.8165 5.12132L5.12449 12.8133C3.95292 13.9849 2.05343 13.9849 0.881853 12.8133Z" fill="#121212"/>
<path d="M0.87868 8.65353C-0.292893 9.8251 -0.292893 11.7246 0.87868 12.8962L8.57066 20.5881C9.74223 21.7597 11.6417 21.7597 12.8133 20.5881C13.9849 19.4166 13.9849 17.5171 12.8133 16.3455L5.12132 8.65353C3.94975 7.48195 2.05025 7.48195 0.87868 8.65353Z" fill="#121212"/>
</svg>
