<svg width="35" height="23" viewBox="0 0 35 23" fill="none" xmlns="http://www.w3.org/2000/svg">
<path d="M0.0281614 11.039C0.0281614 9.33475 1.4097 7.95321 3.11391 7.95321H31.9142C33.6185 7.95321 35 9.33475 35 11.039C35 12.7432 33.6185 14.1247 31.9142 14.1247H3.11391C1.4097 14.1247 0.0281614 12.7432 0.0281614 11.039Z" fill="white"/>
<path d="M0.90706 13.1795C-0.298001 11.9745 -0.298001 10.0207 0.90706 8.81564L8.8189 0.903794C10.024 -0.301266 11.9777 -0.301264 13.1828 0.903796C14.3879 2.10886 14.3879 4.06265 13.1828 5.26771L5.27097 13.1795C4.06591 14.3846 2.11212 14.3846 0.90706 13.1795Z" fill="white"/>
<path d="M0.903795 8.90088C-0.301265 10.1059 -0.301265 12.0597 0.903795 13.2648L8.81564 21.1766C10.0207 22.3817 11.9745 22.3817 13.1795 21.1766C14.3846 19.9716 14.3846 18.0178 13.1795 16.8127L5.2677 8.90087C4.06264 7.69581 2.10886 7.69582 0.903795 8.90088Z" fill="white"/>
</svg>
