<svg width="26" height="26" viewBox="0 0 26 26" fill="none" xmlns="http://www.w3.org/2000/svg">
<path d="M20.6777 0.87868C21.8492 -0.292893 23.7487 -0.292893 24.9203 0.878679C26.0919 2.05025 26.0919 3.94975 24.9203 5.12132L5.12132 24.9203C3.94975 26.0919 2.05025 26.0919 0.87868 24.9203C-0.292893 23.7487 -0.292893 21.8492 0.87868 20.6777L20.6777 0.87868Z" fill="#121212"/>
<path d="M0.878685 5.12132C-0.292888 3.94975 -0.292888 2.05025 0.878684 0.87868C2.05026 -0.292893 3.94975 -0.292893 5.12133 0.87868L24.9203 20.6777C26.0919 21.8492 26.0919 23.7487 24.9203 24.9203C23.7487 26.0919 21.8492 26.0919 20.6777 24.9203L0.878685 5.12132Z" fill="#121212"/>
</svg>
