<svg width="26" height="26" viewBox="0 0 26 26" fill="none" xmlns="http://www.w3.org/2000/svg">
<path d="M20.8388 0.885526C22.0195 -0.295175 23.9338 -0.295175 25.1145 0.885525C26.2952 2.06623 26.2952 3.98052 25.1145 5.16122L5.16122 25.1145C3.98052 26.2952 2.06623 26.2952 0.885526 25.1145C-0.295175 23.9338 -0.295175 22.0195 0.885526 20.8388L20.8388 0.885526Z" fill="#121212"/>
<path d="M0.885531 5.16122C-0.29517 3.98052 -0.29517 2.06623 0.885531 0.885526C2.06623 -0.295175 3.98053 -0.295175 5.16123 0.885526L25.1145 20.8388C26.2952 22.0195 26.2952 23.9338 25.1145 25.1145C23.9338 26.2952 22.0195 26.2952 20.8388 25.1145L0.885531 5.16122Z" fill="#121212"/>
</svg>
