<svg width="28" height="32" viewBox="0 0 28 32" fill="none" xmlns="http://www.w3.org/2000/svg">
<path d="M13.9991 24.9799C12.7642 24.9799 11.7631 23.9931 11.7631 22.7758V2.20411C11.7631 0.986813 12.7642 0 13.9991 0C15.234 0 16.2351 0.986813 16.2351 2.20411V22.7758C16.2351 23.9931 15.234 24.9799 13.9991 24.9799Z" fill="#121212"/>
<path d="M15.5502 24.3521C14.677 25.2129 13.2612 25.2129 12.388 24.3521L6.65491 18.7008C5.7817 17.84 5.7817 16.4445 6.65491 15.5837C7.52813 14.723 8.94389 14.723 9.81711 15.5837L15.5502 21.235C16.4234 22.0958 16.4234 23.4913 15.5502 24.3521Z" fill="#121212"/>
<path d="M12.4498 24.3544C13.323 25.2152 14.7388 25.2152 15.612 24.3544L21.3451 18.7031C22.2183 17.8424 22.2183 16.4468 21.3451 15.586C20.4719 14.7253 19.0561 14.7253 18.1829 15.586L12.4498 21.2374C11.5766 22.0981 11.5766 23.4937 12.4498 24.3544Z" fill="#121212"/>
<path d="M0 29.5C0 28.1193 1.11929 27 2.5 27H25.5C26.8807 27 28 28.1193 28 29.5C28 30.8807 26.8807 32 25.5 32H2.5C1.11929 32 0 30.8807 0 29.5Z" fill="#121212"/>
</svg>
